<?xml version="1.0" standalone="no"?><!DOCTYPE svg PUBLIC "-//W3C//DTD SVG 1.1//EN" "http://www.w3.org/Graphics/SVG/1.1/DTD/svg11.dtd"><svg t="1712818558035" class="icon" viewBox="0 0 1024 1024" version="1.1" xmlns="http://www.w3.org/2000/svg" p-id="5367" xmlns:xlink="http://www.w3.org/1999/xlink" width="200" height="200"><path d="M669.184 0l-19.84 32.704a877.952 877.952 0 0 1 339.904 379.328L1024 396.16A916.16 916.16 0 0 0 669.248 0.064zM361.024 22.336l-12.8 45.888a862.272 862.272 0 0 1 597.184 615.296l46.272-11.008A910.528 910.528 0 0 0 361.024 22.336zM0 97.344v57.28a843.456 843.456 0 0 1 848.32 836.48h57.28A900.736 900.736 0 0 0 0 97.344z" p-id="5368"></path></svg>